<?xml version="1.0" encoding="utf-8"?>
<!-- Generator: Adobe Illustrator 26.1.0, SVG Export Plug-In . SVG Version: 6.00 Build 0)  -->
<svg version="1.1" xmlns="http://www.w3.org/2000/svg" xmlns:xlink="http://www.w3.org/1999/xlink" x="0px" y="0px" width="820px"
	 height="356.723px" viewBox="0 0 820 356.723" style="enable-background:new 0 0 820 356.723;" xml:space="preserve">
<style type="text/css">
	.st0{fill:#F5F5F5;}
	.st1{opacity:0.29;clip-path:url(#SVGID_00000101095117532103408490000002927066338527890566_);}
	.st2{fill:#BCBCBC;}
	.st3{fill:#1CD0BB;}
	.st4{fill:#00A9D7;}
	.st5{fill:#333333;}
	.st6{fill:url(#SVGID_00000106115925731296026840000013030133883708729270_);}
	.st7{fill:url(#SVGID_00000122709843145474722010000014630926020273990276_);}
	.st8{fill:url(#SVGID_00000016074588941024250400000012065782663133031852_);}
	.st9{fill:url(#SVGID_00000044889561594798143470000006462517853544955808_);}
	.st10{fill:url(#SVGID_00000128462926137261322970000015787172916664198591_);}
	.st11{clip-path:url(#SVGID_00000101095117532103408490000002927066338527890566_);}
	.st12{fill:url(#SVGID_00000170241555932798082140000013063498698889019791_);}
	.st13{fill:url(#SVGID_00000139288558678663860360000006494267589231759286_);}
	.st14{fill:url(#SVGID_00000052068220396451262690000017399600545916859806_);}
	.st15{fill:url(#SVGID_00000013879687257829148690000007255397801657339524_);}
	.st16{fill:url(#SVGID_00000115510497211203671710000003760234898256514212_);}
	.st17{fill:url(#SVGID_00000061461949914096730030000004769802109758036885_);}
	.st18{fill:url(#SVGID_00000108304319271185640060000004947755396219232154_);}
	.st19{fill:url(#SVGID_00000053531842941878349140000008604833202856449182_);}
	.st20{fill:url(#SVGID_00000060011404467775892020000010120916298785549498_);}
	.st21{fill:url(#SVGID_00000116914267031719362480000006117832743022294204_);}
	.st22{fill:url(#SVGID_00000055684313635199633370000009855087427645879460_);}
	.st23{fill:url(#SVGID_00000049931581240860702370000013897700522964011404_);}
	.st24{fill:url(#SVGID_00000173158444452444661240000008902577996789274547_);}
	.st25{fill:url(#SVGID_00000128451473605967956640000005253340330275101100_);}
</style>
<g id="MAIN_GRAPHICS">
	
		<rect x="0.459" y="0.101" transform="matrix(-1 -1.224647e-16 1.224647e-16 -1 820.4221 354.5405)" class="st0" width="819.505" height="354.338"/>
	<g>
		<defs>
			
				<rect id="SVGID_1_" x="0.459" y="0.101" transform="matrix(-1 -1.224647e-16 1.224647e-16 -1 821.1808 356.7032)" width="820.264" height="356.501"/>
		</defs>
		<clipPath id="SVGID_00000023994913100175014600000007632834653310921138_">
			<use xlink:href="#SVGID_1_"  style="overflow:visible;"/>
		</clipPath>
		<g style="opacity:0.29;clip-path:url(#SVGID_00000023994913100175014600000007632834653310921138_);">
			<g>
				<g>
					<g>
						
							<rect x="410.491" y="178.704" transform="matrix(0.5023 -0.8647 0.8647 0.5023 68.7911 477.8683)" class="st2" width="78.087" height="0.938"/>
						<polygon class="st2" points="430.489,213.842 428.814,212.868 429.065,212.436 468.58,144.504 470.255,145.479 
							470.004,145.911 						"/>
					</g>
				</g>
				<g>
					<g>
						
							<rect x="495.677" y="133.298" transform="matrix(0.6639 -0.7478 0.7478 0.6639 40.0859 427.9471)" class="st2" width="0.938" height="72.158"/>
						<polygon class="st2" points="522.856,194.386 522.482,194.055 468.148,145.816 469.436,144.368 469.81,144.699 
							524.144,192.938 						"/>
					</g>
				</g>
				<g>
					<g>
						
							<rect x="428.885" y="202.659" transform="matrix(0.9786 -0.206 0.206 0.9786 -31.6204 102.501)" class="st2" width="95.258" height="0.937"/>
						
							<rect x="428.384" y="202.159" transform="matrix(0.9785 -0.2061 0.2061 0.9785 -31.6328 102.5635)" class="st2" width="96.259" height="1.937"/>
					</g>
				</g>
				<g>
					<g>
						
							<rect x="483.414" y="142.331" transform="matrix(0.2366 -0.9716 0.9716 0.2366 269.9757 629.2198)" class="st2" width="104.002" height="0.939"/>
						<polygon class="st2" points="523.949,194.044 522.066,193.585 522.184,193.1 546.881,91.558 548.764,92.017 548.646,92.502 
													"/>
					</g>
				</g>
				<g>
					<g>
						
							<rect x="461.018" y="118.38" transform="matrix(0.8281 -0.5606 0.5606 0.8281 20.7843 305.47)" class="st2" width="94.832" height="0.937"/>
						
							<rect x="460.518" y="117.879" transform="matrix(0.8271 -0.5621 0.5621 0.8271 21.1233 306.3535)" class="st2" width="95.832" height="1.937"/>
					</g>
				</g>
				<g>
					<g>
						
							<rect x="509.025" y="150.856" transform="matrix(0.7971 -0.6038 0.6038 0.7971 26.03 380.1189)" class="st2" width="139.239" height="0.94"/>
						<polygon class="st2" points="523.312,194.405 522.141,192.859 522.539,192.557 633.979,108.247 635.149,109.793 
							634.751,110.095 						"/>
					</g>
				</g>
				<g>
					<g>
						
							<rect x="590.465" y="56.734" transform="matrix(0.1935 -0.9811 0.9811 0.1935 377.7208 661.0682)" class="st2" width="0.938" height="88.127"/>
						
							<rect x="589.965" y="56.235" transform="matrix(0.1935 -0.9811 0.9811 0.1935 377.7196 661.0679)" class="st2" width="1.938" height="89.126"/>
					</g>
				</g>
				<g>
					<g>
						
							<rect x="626.548" y="11.447" transform="matrix(0.9894 -0.1453 0.1453 0.9894 -2.1578 91.7447)" class="st2" width="0.94" height="98.396"/>
						<polygon class="st2" points="633.277,109.958 633.204,109.463 618.839,11.614 620.757,11.333 620.83,11.828 635.198,109.673 
													"/>
					</g>
				</g>
				<g>
					<g>
						<polygon class="st2" points="619.521,11.656 620.22,12.28 548.053,92.586 547.355,91.96 						"/>
						<polygon class="st2" points="548.092,93.292 546.647,91.998 546.982,91.626 619.483,10.951 620.927,12.242 						"/>
					</g>
				</g>
				<g>
					<g>
						
							<rect x="632.597" y="94.935" transform="matrix(0.9749 -0.2224 0.2224 0.9749 -3.8052 157.0233)" class="st2" width="125.214" height="0.939"/>
						<polygon class="st2" points="633.895,110.377 633.459,108.488 756.517,80.432 756.948,82.322 756.461,82.433 						"/>
					</g>
				</g>
				<g>
					<g>
						
							<rect x="687.588" y="-29.808" transform="matrix(0.4542 -0.8909 0.8909 0.4542 333.9344 638.5073)" class="st2" width="0.937" height="153.072"/>
						<polygon class="st2" points="756.25,82.578 618.98,12.603 619.866,10.879 757.128,80.852 						"/>
					</g>
				</g>
				<g>
					<g>
						
							<rect x="687.095" y="2.859" transform="matrix(0.1227 -0.9924 0.9924 0.1227 668.5944 762.9777)" class="st2" width="157.494" height="0.938"/>
						<polygon class="st2" points="757.146,82.103 755.222,81.866 755.283,81.37 774.537,-75.448 776.462,-75.21 776.4,-74.714 
													"/>
					</g>
				</g>
				<g>
					<g>
						
							<rect x="741.671" y="31.82" transform="matrix(0.8373 -0.5468 0.5468 0.8373 117.7423 460.1954)" class="st2" width="180.666" height="0.939"/>
						<polygon class="st2" points="756.352,82.573 755.297,80.948 755.716,80.675 907.651,-17.993 908.714,-16.37 						"/>
					</g>
				</g>
				<g>
					<g>
						
							<rect x="722.948" y="31.305" transform="matrix(0.1337 -0.991 0.991 0.1337 506.3859 822.0534)" class="st2" width="0.94" height="180.124"/>
						<polygon class="st2" points="813.037,134.441 633.536,110.215 633.803,108.294 634.296,108.36 813.297,132.519 						"/>
					</g>
				</g>
				<g>
					<g>
						
							<rect x="783.987" y="69.11" transform="matrix(0.6772 -0.7358 0.7358 0.6772 174.19 611.924)" class="st2" width="0.94" height="76.682"/>
						
							<rect x="783.487" y="68.61" transform="matrix(0.6772 -0.7358 0.7358 0.6772 174.181 611.9131)" class="st2" width="1.94" height="77.682"/>
					</g>
				</g>
				<g>
					<g>
						
							<rect x="378.617" y="109.446" transform="matrix(0.6114 -0.7913 0.7913 0.6114 9.892 367.4676)" class="st2" width="0.941" height="128.432"/>
						<polygon class="st2" points="429.706,214 429.31,213.693 327.283,134.863 328.468,133.327 430.89,212.46 						"/>
					</g>
				</g>
				<g>
					<g>
						<polygon class="st2" points="328.308,133.932 469.202,144.955 469.13,145.892 328.233,134.869 						"/>
						
							<rect x="397.749" y="68.749" transform="matrix(0.078 -0.997 0.997 0.078 228.1328 526.5028)" class="st2" width="1.94" height="142.326"/>
					</g>
				</g>
				<g>
					<g>
						
							<rect x="346.342" y="265.869" transform="matrix(0.4192 -0.9079 0.9079 0.4192 -6.4718 522.5595)" class="st2" width="117.704" height="0.939"/>
						<polygon class="st2" points="381.156,320.612 379.395,319.799 379.605,319.345 429.232,212.063 430.993,212.876 						"/>
					</g>
				</g>
				<g>
					<g>
						
							<rect x="356.505" y="256.073" transform="matrix(0.7485 -0.6631 0.6631 0.7485 -56.4987 364.0983)" class="st2" width="190.6" height="0.936"/>
						<polygon class="st2" points="380.755,320.807 379.468,319.361 379.843,319.029 522.857,192.273 524.14,193.724 
							523.767,194.055 						"/>
					</g>
				</g>
				<g>
					<g>
						
							<rect x="528.963" y="193.088" transform="matrix(0.9971 -0.0767 0.0767 0.9971 -19.5603 41.4358)" class="st2" width="0.937" height="164.344"/>
						<polygon class="st2" points="534.809,357.763 534.771,357.264 522.122,192.904 524.053,192.76 524.091,193.257 
							536.74,357.613 						"/>
					</g>
				</g>
				<g>
					<g>
						<polygon class="st2" points="633.729,109.149 634.601,109.494 536.174,357.362 535.301,357.019 						"/>
						<polygon class="st2" points="536.455,358.009 534.651,357.302 534.837,356.835 633.449,108.5 635.251,109.213 
							635.066,109.679 						"/>
					</g>
				</g>
				<g>
					<g>
						
							<rect x="535.461" y="-54.204" transform="matrix(0.9872 -0.1597 0.1597 0.9872 3.7662 85.8645)" class="st2" width="0.938" height="147.423"/>
						<polygon class="st2" points="546.828,92.922 546.749,92.428 523.118,-53.596 525.032,-53.905 525.111,-53.412 548.741,92.612 
													"/>
					</g>
				</g>
				<g>
					<g>
						<polygon class="st2" points="524.42,-53.645 620.134,11.579 619.607,12.355 523.893,-52.869 						"/>
						<polygon class="st2" points="619.738,13.05 619.325,12.768 523.198,-52.737 524.288,-54.34 524.701,-54.058 620.828,11.447 
													"/>
					</g>
				</g>
				<g>
					<g>
						
							<rect x="599.811" y="43.933" transform="matrix(0.562 -0.8272 0.8272 0.562 260.4079 580.5391)" class="st2" width="157.034" height="0.938"/>
						
							<rect x="599.31" y="43.433" transform="matrix(0.5626 -0.8267 0.8267 0.5626 260.0011 580.2218)" class="st2" width="158.034" height="1.937"/>
					</g>
				</g>
				<g>
					<g>
						
							<rect x="738.898" y="-23.238" transform="matrix(0.9494 -0.3142 0.3142 0.9494 27.8613 233.8382)" class="st2" width="0.938" height="107.446"/>
						<polygon class="st2" points="755.48,82.266 755.323,81.792 721.414,-20.689 723.252,-21.296 723.409,-20.822 757.324,81.659 
													"/>
					</g>
				</g>
				<g>
					<g>
						<polygon class="st2" points="468.696,145.402 469.633,145.445 461.814,331.714 460.876,331.671 						"/>
						<polygon class="st2" points="462.293,332.236 460.355,332.147 460.376,331.649 468.218,144.88 470.153,144.969 
							470.133,145.466 						"/>
					</g>
				</g>
				<g>
					<g>
						
							<rect x="445.155" y="210.878" transform="matrix(0.9667 -0.2559 0.2559 0.9667 -54.8512 123.1204)" class="st2" width="0.938" height="122.86"/>
						
							<rect x="444.656" y="210.378" transform="matrix(0.9667 -0.2559 0.2559 0.9667 -54.8482 123.1104)" class="st2" width="1.937" height="123.86"/>
					</g>
				</g>
				<g>
					<g>
						
							<rect x="608.581" y="-31.901" transform="matrix(0.8729 -0.4879 0.4879 0.8729 103.9967 336.3724)" class="st2" width="178.145" height="0.938"/>
						<polygon class="st2" points="619.905,13.058 618.961,11.366 619.398,11.123 775.402,-75.922 776.347,-74.23 775.909,-73.986 
													"/>
					</g>
				</g>
				<g>
					<g>
						
							<rect x="468.451" y="51.814" transform="matrix(1 -0.0052 0.0052 1 -0.507 2.4421)" class="st2" width="0.938" height="93.611"/>
						<polygon class="st2" points="468.199,145.929 468.196,145.429 467.703,51.319 469.643,51.31 469.646,51.81 470.136,145.918 
													"/>
					</g>
				</g>
				<g>
					<g>
						
							<rect x="445.832" y="-3.368" transform="matrix(0.7176 -0.6964 0.6964 0.7176 105.991 318.9328)" class="st2" width="0.938" height="64.253"/>
						<polygon class="st2" points="468.327,52.848 467.979,52.489 422.885,6.019 424.275,4.67 424.623,5.029 469.719,51.499 						
							"/>
					</g>
				</g>
				<g>
					<g>
						<polygon class="st2" points="634.551,109.053 686.907,183.8 686.14,184.341 633.78,109.591 						"/>
						<polygon class="st2" points="686.018,185.038 685.73,184.627 633.082,109.467 634.674,108.357 634.96,108.766 
							687.603,183.922 						"/>
					</g>
				</g>
				<g>
					<g>
						<polygon class="st2" points="686.115,183.838 686.932,184.304 644.428,259.108 643.612,258.643 						"/>
						<polygon class="st2" points="644.616,259.791 642.931,258.83 643.178,258.396 685.928,183.155 687.613,184.117 
							687.366,184.551 						"/>
					</g>
				</g>
				<g>
					<g>
						<polygon class="st2" points="873.925,63.63 874.065,64.557 756.312,81.952 756.178,81.024 						"/>
						<polygon class="st2" points="755.888,82.52 755.613,80.602 874.347,63.062 874.633,64.979 						"/>
					</g>
				</g>
				<g>
					<g>
						
							<rect x="531.02" y="45.523" transform="matrix(0.7853 -0.6192 0.6192 0.7853 69.7273 344.471)" class="st2" width="0.938" height="52.373"/>
						
							<rect x="530.52" y="45.023" transform="matrix(0.7853 -0.6191 0.6191 0.7853 69.7131 344.4473)" class="st2" width="1.939" height="53.373"/>
					</g>
				</g>
				<g>
					<g>
						
							<rect x="508.312" y="-50.382" transform="matrix(0.9919 -0.1274 0.1274 0.9919 4.0708 64.8245)" class="st2" width="0.939" height="101.943"/>
						<polygon class="st2" points="514.378,51.768 514.313,51.271 501.263,-50.338 503.186,-50.587 503.249,-50.09 516.301,51.517 
													"/>
					</g>
				</g>
				<g>
					<g>
						
							<rect x="602.294" y="-73.933" transform="matrix(0.9237 -0.3831 0.3831 0.9237 57.1984 228.6741)" class="st2" width="0.938" height="89.308"/>
						
							<rect x="601.794" y="-74.433" transform="matrix(0.9237 -0.3831 0.3831 0.9237 57.1991 228.6755)" class="st2" width="1.938" height="90.308"/>
					</g>
				</g>
				<g>
					<g>
						
							<rect x="339.051" y="221.959" transform="matrix(0.9784 -0.2068 0.2068 0.9784 -37.6757 84.4194)" class="st2" width="91.846" height="0.937"/>
						
							<rect x="338.551" y="221.459" transform="matrix(0.9782 -0.2075 0.2075 0.9782 -37.7815 84.7441)" class="st2" width="92.846" height="1.937"/>
					</g>
				</g>
				<g>
					<g>
						<polygon class="st2" points="340.512,231.87 354.278,337.821 353.347,337.944 339.579,231.993 						"/>
						<polygon class="st2" points="352.916,338.505 339.019,231.562 340.943,231.309 354.838,338.251 						"/>
					</g>
				</g>
				<g>
					<g>
						
							<rect x="798.048" y="-8.205" transform="matrix(0.9863 -0.1652 0.1652 0.9863 12.9974 140.8314)" class="st2" width="110.481" height="0.94"/>
						
							<rect x="797.549" y="-8.705" transform="matrix(0.9863 -0.1651 0.1651 0.9863 12.9858 140.7657)" class="st2" width="111.482" height="1.94"/>
					</g>
				</g>
				<g>
					<g>
						
							<rect x="563.374" y="86.162" transform="matrix(0.7492 -0.6623 0.6623 0.7492 68.1885 401.1501)" class="st2" width="0.937" height="48.731"/>
						
							<rect x="562.873" y="85.662" transform="matrix(0.7492 -0.6624 0.6624 0.7492 68.2209 401.2052)" class="st2" width="1.937" height="49.731"/>
					</g>
				</g>
				<g>
					<g>
						
							<rect x="508.545" y="160.588" transform="matrix(0.6613 -0.7501 0.7501 0.6613 65.9935 468.2721)" class="st2" width="86.017" height="0.937"/>
						
							<rect x="508.045" y="160.088" transform="matrix(0.6622 -0.7494 0.7494 0.6622 65.6428 467.7168)" class="st2" width="87.017" height="1.936"/>
					</g>
				</g>
			</g>
			<path class="st3" d="M357.784,223.344c4.744,9.795,0.648,21.581-9.149,26.326c-9.796,4.745-21.585,0.65-26.328-9.147
				c-4.743-9.798-0.648-21.586,9.149-26.328C341.253,209.449,353.04,213.546,357.784,223.344z"/>
			<path class="st3" d="M534.108,188.013c2.933,6.064,0.399,13.362-5.666,16.298c-6.064,2.939-13.362,0.401-16.298-5.663
				c-2.936-6.064-0.401-13.362,5.663-16.298C523.874,179.411,531.169,181.948,534.108,188.013z"/>
			<path class="st3" d="M474.166,49.155c1.466,3.032,0.198,6.68-2.831,8.149c-3.035,1.469-6.68,0.201-8.152-2.831
				c-1.467-3.032-0.198-6.683,2.834-8.149C469.049,44.855,472.697,46.123,474.166,49.155z"/>
			<path class="st3" d="M658.66,97.458c6.551,13.531,0.897,29.808-12.634,36.359c-13.528,6.551-29.808,0.894-36.359-12.634
				c-6.549-13.528-0.894-29.806,12.637-36.357C635.832,78.275,652.109,83.93,658.66,97.458z"/>
			<path class="st4" d="M546.718,351.873c2.936,6.067,0.401,13.362-5.663,16.298c-6.064,2.938-13.365,0.401-16.298-5.663
				c-2.939-6.064-0.401-13.362,5.663-16.298C536.484,343.275,543.779,345.809,546.718,351.873z"/>
			<path class="st5" d="M468.948,328.01c2.034,4.199,0.278,9.252-3.921,11.283c-4.199,2.034-9.252,0.278-11.284-3.918
				c-2.033-4.199-0.277-9.252,3.921-11.286C461.862,322.058,466.914,323.813,468.948,328.01z"/>
			<path class="st5" d="M522.878,47.466c2.034,4.198,0.278,9.25-3.923,11.284c-4.196,2.031-9.249,0.277-11.283-3.922
				c-2.031-4.199-0.278-9.25,3.923-11.284C515.792,41.511,520.844,43.268,522.878,47.466z"/>
			<path class="st5" d="M774.842,71.44c5.082,10.496,0.693,23.126-9.803,28.21c-10.499,5.082-23.125,0.693-28.21-9.803
				c-5.082-10.496-0.693-23.125,9.803-28.21C757.128,56.555,769.757,60.944,774.842,71.44z"/>
			<path class="st5" d="M650.982,256.025c2.034,4.199,0.278,9.252-3.923,11.283c-4.196,2.034-9.249,0.278-11.283-3.918
				c-2.034-4.202-0.278-9.251,3.924-11.285C643.896,250.074,648.949,251.829,650.982,256.025z"/>
			<path class="st4" d="M438.771,208.63c2.372,4.897,0.324,10.79-4.574,13.164c-4.899,2.371-10.792,0.324-13.164-4.573
				c-2.371-4.9-0.324-10.793,4.575-13.164C430.507,201.683,436.4,203.733,438.771,208.63z"/>
			<path class="st4" d="M695.188,179.355c2.371,4.897,0.327,10.79-4.573,13.164c-4.9,2.371-10.793,0.321-13.164-4.576
				c-2.371-4.897-0.324-10.79,4.576-13.164C686.924,172.408,692.817,174.455,695.188,179.355z"/>
			<path class="st4" d="M808.107-3.062c2.371,4.899,0.324,10.793-4.576,13.164c-4.897,2.372-10.79,0.324-13.162-4.574
				c-2.371-4.899-0.326-10.793,4.574-13.164C799.843-10.007,805.736-7.96,808.107-3.062z"/>
			<path class="st5" d="M334.607,131.334c1.694,3.498,0.232,7.71-3.268,9.401c-3.499,1.697-7.709,0.233-9.403-3.265
				c-1.694-3.5-0.232-7.71,3.268-9.404C328.702,126.372,332.912,127.836,334.607,131.334z"/>
			
				<linearGradient id="SVGID_00000055699116460485172800000016575965213077725090_" gradientUnits="userSpaceOnUse" x1="329.7751" y1="342.1212" x2="377.848" y2="333.6446">
				<stop  offset="0" style="stop-color:#00B4E5"/>
				<stop  offset="1" style="stop-color:#1CD0BB"/>
			</linearGradient>
			<path style="fill:url(#SVGID_00000055699116460485172800000016575965213077725090_);" d="M375.773,327.247
				c5.873,12.131,0.802,26.724-11.327,32.599c-12.13,5.872-26.723,0.8-32.596-11.328c-5.874-12.129-0.803-26.724,11.327-32.596
				C355.306,310.047,369.9,315.118,375.773,327.247z"/>
			
				<linearGradient id="SVGID_00000020400656858570046950000001485474800167199647_" gradientUnits="userSpaceOnUse" x1="531.823" y1="94.7454" x2="562.3309" y2="89.3661">
				<stop  offset="0" style="stop-color:#00B4E5"/>
				<stop  offset="1" style="stop-color:#1CD0BB"/>
			</linearGradient>
			<path style="fill:url(#SVGID_00000020400656858570046950000001485474800167199647_);" d="M561.014,85.307
				c3.728,7.698,0.508,16.958-7.188,20.686c-7.697,3.728-16.959,0.508-20.687-7.188c-3.725-7.698-0.508-16.959,7.188-20.686
				C548.024,74.392,557.286,77.609,561.014,85.307z"/>
			
				<linearGradient id="SVGID_00000006690385097242340530000010659872072141265309_" gradientUnits="userSpaceOnUse" x1="412.3711" y1="7.7413" x2="435.4837" y2="3.6659">
				<stop  offset="0" style="stop-color:#00B4E5"/>
				<stop  offset="1" style="stop-color:#1CD0BB"/>
			</linearGradient>
			<path style="fill:url(#SVGID_00000006690385097242340530000010659872072141265309_);" d="M434.486,0.591
				c2.823,5.831,0.385,12.848-5.446,15.672c-5.832,2.823-12.847,0.385-15.672-5.446c-2.823-5.831-0.385-12.848,5.446-15.672
				C424.646-7.679,431.663-5.241,434.486,0.591z"/>
			
				<linearGradient id="SVGID_00000127723566394808064570000005242590306105438132_" gradientUnits="userSpaceOnUse" x1="801.115" y1="135.4519" x2="824.226" y2="131.3768">
				<stop  offset="0" style="stop-color:#00B4E5"/>
				<stop  offset="1" style="stop-color:#1CD0BB"/>
			</linearGradient>
			<path style="fill:url(#SVGID_00000127723566394808064570000005242590306105438132_);" d="M823.228,128.301
				c2.826,5.831,0.385,12.846-5.444,15.672c-5.831,2.823-12.848,0.385-15.672-5.446c-2.823-5.832-0.385-12.848,5.446-15.672
				C813.39,120.032,820.407,122.47,823.228,128.301z"/>
			
				<linearGradient id="SVGID_00000124162802401266219100000002406571434254772613_" gradientUnits="userSpaceOnUse" x1="610.9236" y1="13.218" x2="627.5633" y2="10.284">
				<stop  offset="0" style="stop-color:#00B4E5"/>
				<stop  offset="1" style="stop-color:#1CD0BB"/>
			</linearGradient>
			<path style="fill:url(#SVGID_00000124162802401266219100000002406571434254772613_);" d="M626.846,8.069
				c2.031,4.198,0.276,9.25-3.92,11.284c-4.199,2.033-9.252,0.277-11.283-3.92c-2.034-4.199-0.278-9.252,3.918-11.284
				C619.762,2.116,624.812,3.872,626.846,8.069z"/>
			<path class="st3" d="M384.709,317.706c1.129,2.334,0.154,5.138-2.178,6.27c-2.332,1.129-5.138,0.153-6.269-2.181
				c-1.129-2.331-0.154-5.138,2.178-6.268C380.772,314.398,383.58,315.375,384.709,317.706z"/>
			<path class="st3" d="M473.39,143.379c1.129,2.333,0.155,5.138-2.179,6.268c-2.333,1.129-5.138,0.155-6.268-2.179
				c-1.129-2.331-0.155-5.138,2.179-6.268C469.453,140.071,472.261,141.045,473.39,143.379z"/>
			<path class="st3" d="M584,126.316c1.129,2.331,0.152,5.138-2.178,6.268c-2.334,1.129-5.141,0.153-6.27-2.178
				c-1.129-2.334-0.153-5.138,2.178-6.268C580.063,123.005,582.868,123.982,584,126.316z"/>
		</g>
		<g style="clip-path:url(#SVGID_00000023994913100175014600000007632834653310921138_);">
			<g>
				<g>
					<g>
						
							<rect x="762.711" y="88.157" transform="matrix(0.4564 -0.8898 0.8898 0.4564 378.546 796.8771)" class="st2" width="157.496" height="0.938"/>
						<polygon class="st2" points="806.095,159.549 804.369,158.669 876.823,17.701 878.549,18.586 878.319,19.031 						"/>
					</g>
				</g>
				<g>
					<g>
						
							<rect x="752.9" y="36.411" transform="matrix(0.6927 -0.7212 0.7212 0.6927 153.1592 576.7312)" class="st2" width="0.938" height="144.448"/>
						<polygon class="st2" points="805.147,159.709 700.248,58.956 701.592,57.56 701.952,57.906 806.491,158.312 						"/>
					</g>
				</g>
				<g>
					<g>
						<polygon class="st2" points="877.353,18.131 877.559,19.046 701.383,59.063 701.177,58.148 						"/>
						<polygon class="st2" points="701.005,59.662 700.579,57.771 701.066,57.66 877.731,17.532 878.157,19.422 877.67,19.533 
													"/>
					</g>
				</g>
				<g>
					<g>
						
							<rect x="623.237" y="-43.496" transform="matrix(0.268 -0.9634 0.9634 0.268 420.8733 627.9893)" class="st2" width="0.939" height="161.041"/>
						
							<rect x="622.737" y="-43.996" transform="matrix(0.268 -0.9634 0.9634 0.268 420.8734 627.9894)" class="st2" width="1.939" height="162.042"/>
					</g>
				</g>
				<g>
					<g>
						
							<rect x="466.468" y="73.595" transform="matrix(0.2974 -0.9548 0.9548 0.2974 300.1797 556.0272)" class="st2" width="122.8" height="0.939"/>
						<polygon class="st2" points="510.383,133.45 508.529,132.875 508.678,132.397 545.355,14.678 547.205,15.254 547.057,15.732 
													"/>
					</g>
				</g>
				<g>
					<g>
						<polygon class="st2" points="701.11,58.166 701.45,59.043 509.773,133.124 509.433,132.249 						"/>
						<polygon class="st2" points="509.487,133.771 508.785,131.963 509.252,131.782 701.396,57.52 702.098,59.329 701.631,59.509 
													"/>
					</g>
				</g>
				<g>
					<g>
						
							<rect x="821.368" y="155.721" transform="matrix(0.9375 -0.348 0.348 0.9375 -19.2025 298.6524)" class="st2" width="0.938" height="94.128"/>
						<polygon class="st2" points="837.48,247.714 837.307,247.245 804.376,158.531 806.194,157.857 839.296,247.039 						"/>
					</g>
				</g>
				<g>
					<g>
						<polygon class="st2" points="645.694,154.153 805.474,158.194 805.447,159.134 645.673,155.096 						"/>
						<polygon class="st2" points="805.933,159.646 805.435,159.634 645.161,155.583 645.206,153.641 805.987,157.707 						"/>
					</g>
				</g>
				<g>
					<g>
						
							<rect x="618.005" y="106.145" transform="matrix(0.5021 -0.8648 0.8648 0.5021 243.1206 635.5134)" class="st2" width="110.953" height="0.939"/>
						<polygon class="st2" points="646.271,155.543 644.593,154.571 644.844,154.138 700.693,57.687 702.368,58.659 						"/>
					</g>
				</g>
				<g>
					<g>
						<polygon class="st2" points="805.142,158.32 805.779,159.008 661.511,293.01 660.871,292.325 						"/>
						<polygon class="st2" points="661.485,293.716 660.163,292.3 660.531,291.959 805.168,157.613 806.484,159.034 
							806.118,159.374 						"/>
					</g>
				</g>
				<g>
					<g>
						
							<rect x="658.016" y="271.647" transform="matrix(0.9532 -0.3024 0.3024 0.9532 -48.2931 232.3445)" class="st2" width="136.208" height="0.937"/>
						
							<rect x="657.516" y="271.147" transform="matrix(0.9538 -0.3004 0.3004 0.9538 -48.2059 230.6812)" class="st2" width="137.209" height="1.938"/>
					</g>
				</g>
				<g>
					<g>
						<polygon class="st2" points="804.997,158.59 805.923,158.735 791.512,251.636 790.586,251.489 						"/>
						<polygon class="st2" points="791.929,252.209 790.016,251.905 804.58,158.019 806.493,158.319 806.417,158.812 						"/>
					</g>
				</g>
				<g>
					<g>
						<polygon class="st2" points="761.041,-6.211 877.552,18.128 877.362,19.047 760.851,-5.293 						"/>
						<polygon class="st2" points="877.749,19.639 760.26,-4.906 760.653,-6.803 878.143,17.741 						"/>
					</g>
				</g>
				<g>
					<g>
						
							<rect x="698.532" y="-25.882" transform="matrix(0.9985 -0.0539 0.0539 0.9985 0.1333 37.7238)" class="st2" width="0.938" height="84.548"/>
						<polygon class="st2" points="700.341,59.155 700.314,58.656 695.727,-26.267 697.662,-26.373 697.688,-25.873 702.276,59.052 
													"/>
					</g>
				</g>
				<g>
					<g>
						
							<rect x="715.788" y="-33.455" transform="matrix(0.735 -0.6781 0.6781 0.735 192.9477 484.4306)" class="st2" width="0.94" height="57.624"/>
						
							<rect x="715.288" y="-33.955" transform="matrix(0.735 -0.6781 0.6781 0.735 192.9464 484.4293)" class="st2" width="1.939" height="58.624"/>
					</g>
				</g>
				<g>
					<g>
						<polygon class="st2" points="805.313,158.219 805.608,159.11 631.136,216.404 630.841,215.513 						"/>
						<polygon class="st2" points="630.817,217.035 630.209,215.194 805.632,157.588 806.239,159.429 						"/>
					</g>
				</g>
				<g>
					<g>
						
							<rect x="571.989" y="264.27" transform="matrix(0.1906 -0.9817 0.9817 0.1906 243.3005 824.5519)" class="st2" width="99.331" height="0.939"/>
						
							<rect x="571.489" y="263.77" transform="matrix(0.1881 -0.9822 0.9822 0.1881 244.7295 825.5151)" class="st2" width="100.331" height="1.939"/>
					</g>
				</g>
				<g>
					<g>
						<polygon class="st2" points="607.045,112.881 646.026,154.303 645.341,154.946 606.36,113.523 						"/>
						<polygon class="st2" points="645.318,155.652 605.651,113.501 607.067,112.175 646.733,154.325 						"/>
					</g>
				</g>
				<g>
					<g>
						<polygon class="st2" points="606.319,112.935 607.087,113.473 531.817,220.395 531.051,219.854 						"/>
						<polygon class="st2" points="531.937,221.092 530.355,219.974 606.197,112.239 607.785,113.351 607.497,113.76 						"/>
					</g>
				</g>
				<g>
					<g>
						
							<rect x="767.774" y="118.369" transform="matrix(0.0541 -0.9985 0.9985 0.0541 645.3206 918.8903)" class="st2" width="79.773" height="0.938"/>
						
							<rect x="767.274" y="117.87" transform="matrix(0.0542 -0.9985 0.9985 0.0542 645.2327 918.8726)" class="st2" width="80.773" height="1.937"/>
					</g>
				</g>
				<g>
					<g>
						
							<rect x="755.1" y="13.568" transform="matrix(0.1847 -0.9828 0.9828 0.1847 548.3741 798.665)" class="st2" width="0.94" height="110.481"/>
						<polygon class="st2" points="810.169,80.058 700.609,59.466 700.968,57.558 701.46,57.651 810.533,78.152 						"/>
					</g>
				</g>
			</g>
			<path class="st3" d="M519.292,221.321c-0.661-6.704,4.239-12.677,10.943-13.338c6.707-0.664,12.677,4.236,13.341,10.943
				c0.661,6.707-4.239,12.677-10.945,13.341C525.927,232.927,519.956,228.027,519.292,221.321z"/>
			<g>
				<path class="st0" d="M622.628,217.255c-0.458-4.643,2.936-8.778,7.576-9.236c4.641-0.458,8.778,2.936,9.236,7.576
					c0.458,4.643-2.936,8.778-7.576,9.235C627.221,225.289,623.086,221.899,622.628,217.255z"/>
				<path class="st5" d="M631.026,227.873c-5.812,0-10.802-4.422-11.384-10.323v0c-0.618-6.282,3.987-11.896,10.268-12.515
					c3.032-0.303,6.019,0.603,8.383,2.542c2.365,1.94,3.832,4.684,4.132,7.726c0.301,3.042-0.603,6.02-2.542,8.384
					c-1.939,2.364-4.683,3.831-7.726,4.13C631.778,227.854,631.4,227.873,631.026,227.873z M625.613,216.961
					c0.295,2.989,2.961,5.176,5.956,4.885c1.446-0.143,2.752-0.841,3.675-1.966s1.353-2.542,1.21-3.99
					c-0.143-1.447-0.841-2.752-1.966-3.675c-1.126-0.924-2.539-1.349-3.99-1.21C627.511,211.3,625.319,213.972,625.613,216.961
					L625.613,216.961z"/>
			</g>
			<path class="st4" d="M799.586,80.026c-0.535-5.417,3.423-10.239,8.84-10.774c5.417-0.534,10.239,3.424,10.774,8.839
				c0.533,5.417-3.423,10.239-8.839,10.775C804.944,89.4,800.121,85.442,799.586,80.026z"/>
			<path class="st4" d="M597.036,115.573c-0.535-5.417,3.42-10.242,8.837-10.776c5.417-0.534,10.239,3.423,10.775,8.838
				c0.535,5.417-3.42,10.242-8.837,10.775C602.393,124.945,597.568,120.987,597.036,115.573z"/>
			<path class="st4" d="M654.186,293.358c-0.383-3.867,2.443-7.314,6.313-7.697c3.87-0.38,7.314,2.446,7.697,6.316
				c0.38,3.867-2.446,7.314-6.316,7.694C658.013,300.054,654.569,297.228,654.186,293.358z"/>
			
				<linearGradient id="SVGID_00000075158835061027263190000012954838896457993094_" gradientUnits="userSpaceOnUse" x1="530.8795" y1="18.1329" x2="561.384" y2="12.7541">
				<stop  offset="0" style="stop-color:#00B4E5"/>
				<stop  offset="1" style="stop-color:#1CD0BB"/>
			</linearGradient>
			<path style="fill:url(#SVGID_00000075158835061027263190000012954838896457993094_);" d="M530.72,16.964
				c-0.838-8.51,5.379-16.091,13.892-16.93c8.51-0.84,16.092,5.378,16.932,13.89c0.838,8.51-5.379,16.091-13.892,16.93
				C539.141,31.694,531.56,25.475,530.72,16.964z"/>
			
				<linearGradient id="SVGID_00000031191489587682777220000007361523545363215247_" gradientUnits="userSpaceOnUse" x1="730.1472" y1="16.5073" x2="739.3902" y2="14.8775">
				<stop  offset="0" style="stop-color:#00B4E5"/>
				<stop  offset="1" style="stop-color:#1CD0BB"/>
			</linearGradient>
			<path style="fill:url(#SVGID_00000031191489587682777220000007361523545363215247_);" d="M730.099,16.153
				c-0.254-2.58,1.63-4.876,4.21-5.13c2.58-0.254,4.876,1.63,5.13,4.21c0.254,2.577-1.63,4.876-4.21,5.13
				C732.649,20.617,730.353,18.731,730.099,16.153z"/>
			
				<linearGradient id="SVGID_00000139259939426266648670000003171090214666971803_" gradientUnits="userSpaceOnUse" x1="790.8127" y1="162.7075" x2="821.3149" y2="157.3291">
				<stop  offset="0" style="stop-color:#00B4E5"/>
				<stop  offset="1" style="stop-color:#1CD0BB"/>
			</linearGradient>
			<path style="fill:url(#SVGID_00000139259939426266648670000003171090214666971803_);" d="M790.653,161.54
				c-0.841-8.51,5.379-16.092,13.889-16.932c8.513-0.838,16.095,5.379,16.932,13.892c0.84,8.51-5.379,16.089-13.889,16.93
				C799.072,176.269,791.493,170.05,790.653,161.54z"/>
			<g>
				<path class="st0" d="M580.052,316.234c-1.755-17.797,11.248-33.645,29.045-35.4c17.794-1.756,33.645,11.245,35.4,29.042
					c1.756,17.797-11.248,33.645-29.042,35.401C597.659,347.032,581.811,334.028,580.052,316.234z"/>
				
					<linearGradient id="SVGID_00000145778853033797975970000008037657049571614623_" gradientUnits="userSpaceOnUse" x1="576.3923" y1="313.054" x2="648.1584" y2="313.054">
					<stop  offset="0" style="stop-color:#00B4E5"/>
					<stop  offset="1" style="stop-color:#1CD0BB"/>
				</linearGradient>
				<path style="fill:url(#SVGID_00000145778853033797975970000008037657049571614623_);" d="M612.25,348.935
					c-18.212,0-33.854-13.86-35.681-32.356v0c-0.94-9.538,1.889-18.871,7.968-26.28c6.079-7.409,14.679-12.007,24.217-12.947
					c9.535-0.942,18.869,1.888,26.278,7.965c7.409,6.079,12.008,14.678,12.949,24.215c0.94,9.538-1.889,18.871-7.968,26.28
					c-6.078,7.409-14.678,12.007-24.214,12.948C614.609,348.877,613.423,348.935,612.25,348.935z M583.536,315.89
					c1.565,15.847,15.736,27.461,31.576,25.903c7.676-0.757,14.598-4.458,19.49-10.422c4.893-5.964,7.17-13.476,6.412-21.152
					c-0.757-7.676-4.459-14.598-10.422-19.491c-5.965-4.892-13.477-7.169-21.151-6.412c-7.678,0.757-14.6,4.458-19.493,10.422
					C585.056,300.702,582.778,308.214,583.536,315.89L583.536,315.89z"/>
			</g>
			<path class="st3" d="M641.014,155.085c-0.254-2.58,1.63-4.876,4.21-5.13c2.58-0.254,4.876,1.63,5.13,4.21
				c0.254,2.58-1.63,4.876-4.21,5.13C643.564,159.549,641.268,157.665,641.014,155.085z"/>
			<path class="st3" d="M696.611,59.066c-0.257-2.58,1.627-4.876,4.207-5.13s4.876,1.63,5.133,4.21
				c0.251,2.577-1.633,4.876-4.21,5.13C699.162,63.53,696.863,61.644,696.611,59.066z"/>
			<path class="st3" d="M786.379,252.025c-0.254-2.58,1.63-4.879,4.21-5.13c2.58-0.257,4.876,1.627,5.13,4.207
				c0.254,2.58-1.63,4.876-4.21,5.133C788.929,256.486,786.633,254.602,786.379,252.025z"/>
			<path class="st3" d="M504.934,133.148c-0.254-2.58,1.63-4.876,4.21-5.13c2.577-0.257,4.876,1.627,5.128,4.207
				c0.257,2.58-1.627,4.876-4.207,5.133C507.485,137.612,505.189,135.725,504.934,133.148z"/>
		</g>
		<g style="opacity:0.29;clip-path:url(#SVGID_00000023994913100175014600000007632834653310921138_);">
			<g>
				<g>
					<g>
						
							<rect x="-81.835" y="170.705" transform="matrix(0.1227 -0.9924 0.9924 0.1227 -172.5899 147.1123)" class="st2" width="157.496" height="0.938"/>
						<polygon class="st2" points="-11.784,249.953 -13.707,249.709 -13.646,249.215 5.609,92.398 7.532,92.636 						"/>
					</g>
				</g>
				<g>
					<g>
						
							<rect x="72.203" y="49.752" transform="matrix(0.401 -0.9161 0.9161 0.401 -68.2085 139.6353)" class="st2" width="0.938" height="144.447"/>
						<polygon class="st2" points="138.904,152.026 5.663,93.7 6.441,91.925 6.899,92.125 139.681,150.25 						"/>
					</g>
				</g>
				<g>
					<g>
						
							<rect x="-27.256" y="199.668" transform="matrix(0.8386 -0.5448 0.5448 0.8386 -98.8445 66.6636)" class="st2" width="180.664" height="0.938"/>
						
							<rect x="-27.756" y="199.168" transform="matrix(0.8385 -0.5448 0.5448 0.8385 -98.8581 66.6801)" class="st2" width="181.664" height="1.938"/>
					</g>
				</g>
				<g>
					<g>
						
							<rect x="-45.98" y="199.151" transform="matrix(0.1337 -0.991 0.991 0.1337 -326.0379 205.4299)" class="st2" width="0.94" height="180.123"/>
						
							<rect x="-46.48" y="198.651" transform="matrix(0.1337 -0.991 0.991 0.1337 -326.0377 205.4296)" class="st2" width="1.94" height="181.123"/>
					</g>
				</g>
				<g>
					<g>
						
							<rect x="15.061" y="236.956" transform="matrix(0.6772 -0.7358 0.7358 0.6772 -197.5606 100.3049)" class="st2" width="0.937" height="76.682"/>
						
							<rect x="14.561" y="236.456" transform="matrix(0.6771 -0.7359 0.7359 0.6771 -197.5659 100.3112)" class="st2" width="1.937" height="77.682"/>
					</g>
				</g>
				<g>
					<g>
						
							<rect x="138.569" y="143.93" transform="matrix(0.9967 -0.0811 0.0811 0.9967 -10.985 18.236)" class="st2" width="161.04" height="0.941"/>
						<polygon class="st2" points="138.415,151.947 138.258,150.01 299.763,136.856 299.92,138.79 299.422,138.831 						"/>
					</g>
				</g>
				<g>
					<g>
						
							<rect x="295.771" y="15.141" transform="matrix(0.9987 -0.0506 0.0506 0.9987 -3.491 15.0755)" class="st2" width="0.938" height="122.801"/>
						
							<rect x="295.271" y="14.641" transform="matrix(0.9987 -0.0506 0.0506 0.9987 -3.491 15.0753)" class="st2" width="1.938" height="123.801"/>
					</g>
				</g>
				<g>
					<g>
						
							<rect x="113.237" y="82.61" transform="matrix(0.7507 -0.6607 0.6607 0.7507 -1.0374 163.4091)" class="st2" width="205.494" height="0.938"/>
						<polygon class="st2" points="139.099,151.996 137.819,150.541 138.194,150.21 292.87,14.163 294.15,15.617 293.774,15.948 
													"/>
					</g>
				</g>
				<g>
					<g>
						
							<rect x="-24.567" y="10.197" transform="matrix(0.7597 -0.6503 0.6503 0.7597 -43.0304 -1.9085)" class="st2" width="0.939" height="94.128"/>
						
							<rect x="-25.067" y="9.697" transform="matrix(0.7596 -0.6503 0.6503 0.7596 -43.0312 -1.9083)" class="st2" width="1.94" height="95.128"/>
					</g>
				</g>
				<g>
					<g>
						
							<rect x="2.268" y="66.85" transform="matrix(0.9471 -0.321 0.321 0.9471 -17.2622 29.9474)" class="st2" width="159.827" height="0.938"/>
						
							<rect x="1.768" y="66.351" transform="matrix(0.9465 -0.3226 0.3226 0.9465 -17.3223 30.1073)" class="st2" width="160.827" height="1.938"/>
					</g>
				</g>
				<g>
					<g>
						
							<rect x="92.867" y="95.812" transform="matrix(0.1708 -0.9853 0.9853 0.1708 28.1334 225.9941)" class="st2" width="110.952" height="0.939"/>
						<polygon class="st2" points="139.704,151.595 137.794,151.264 137.879,150.771 156.981,40.968 158.892,41.299 158.807,41.792 
													"/>
					</g>
				</g>
				<g>
					<g>
						<polygon class="st2" points="95.208,-82.784 96.044,-82.357 6.928,93.226 6.092,92.8 						"/>
						<polygon class="st2" points="7.147,93.899 5.42,93.019 5.646,92.574 94.989,-83.457 96.716,-82.575 						"/>
					</g>
				</g>
				<g>
					<g>
						
							<rect x="-3.238" y="-0.072" transform="matrix(0.9803 -0.1974 0.1974 0.9803 -9.3188 0.3769)" class="st2" width="0.939" height="94.009"/>
						
							<rect x="-3.739" y="-0.572" transform="matrix(0.9803 -0.1974 0.1974 0.9803 -9.3182 0.3768)" class="st2" width="1.939" height="95.009"/>
					</g>
				</g>
				<g>
					<g>
						
							<rect x="-13.322" y="240.168" transform="matrix(0.9892 -0.1468 0.1468 0.9892 -34.8283 9.3891)" class="st2" width="119.027" height="0.94"/>
						
							<rect x="-13.822" y="239.668" transform="matrix(0.9895 -0.1446 0.1446 0.9895 -34.3166 9.2104)" class="st2" width="120.027" height="1.94"/>
					</g>
				</g>
				<g>
					<g>
						
							<rect x="114.589" y="230.697" transform="matrix(0.9694 -0.2454 0.2454 0.9694 -63.0871 36.5342)" class="st2" width="0.939" height="81.443"/>
						
							<rect x="114.089" y="230.197" transform="matrix(0.9694 -0.2454 0.2454 0.9694 -63.0844 36.5322)" class="st2" width="1.939" height="82.444"/>
					</g>
				</g>
				<g>
					<g>
						
							<rect x="155.081" y="147.492" transform="matrix(0.9185 -0.3954 0.3954 0.9185 -62.3622 76.9774)" class="st2" width="0.939" height="84.549"/>
						<polygon class="st2" points="171.575,229.439 171.377,228.979 137.746,150.863 139.526,150.095 139.724,150.554 
							173.355,228.671 						"/>
					</g>
				</g>
				<g>
					<g>
						
							<rect x="146.151" y="186.656" transform="matrix(0.4556 -0.8902 0.8902 0.4556 -111.9862 247.8168)" class="st2" width="0.938" height="57.623"/>
						<polygon class="st2" points="172.27,229.684 171.825,229.457 120.085,202.976 120.97,201.25 173.155,227.96 						"/>
					</g>
				</g>
				<g>
					<g>
						
							<rect x="-13.334" y="35.532" transform="matrix(0.7837 -0.6211 0.6211 0.7837 -5.3857 56.5357)" class="st2" width="183.639" height="0.938"/>
						
							<rect x="-13.834" y="35.032" transform="matrix(0.783 -0.622 0.622 0.783 -5.3622 56.6317)" class="st2" width="184.639" height="1.938"/>
					</g>
				</g>
				<g>
					<g>
						<polygon class="st2" points="158.06,41.206 208.947,66.616 208.527,67.455 157.642,42.046 						"/>
						
							<rect x="182.325" y="25.392" transform="matrix(0.4467 -0.8947 0.8947 0.4467 52.8015 194.046)" class="st2" width="1.938" height="57.878"/>
					</g>
				</g>
				<g>
					<g>
						<polygon class="st2" points="229.248,-9.54 242.906,-59.178 209.191,67.157 208.284,66.916 						"/>
						<polygon class="st2" points="209.545,67.769 207.668,67.27 207.801,66.784 228.767,-9.672 242.424,-59.311 243.389,-59.049 
													"/>
					</g>
				</g>
				<g>
					<g>
						
							<rect x="17.73" y="91.261" transform="matrix(0.9561 -0.293 0.293 0.9561 -37.6326 11.0903)" class="st2" width="0.938" height="79.773"/>
						
							<rect x="17.229" y="90.761" transform="matrix(0.9561 -0.2931 0.2931 0.9561 -37.6344 11.0911)" class="st2" width="1.938" height="80.773"/>
					</g>
				</g>
				<g>
					<g>
						
							<rect x="29.121" y="159.641" transform="matrix(0.9862 -0.1655 0.1655 0.9862 -25.3331 16.1682)" class="st2" width="110.48" height="0.939"/>
						
							<rect x="28.621" y="159.141" transform="matrix(0.9862 -0.1654 0.1654 0.9862 -25.3232 16.1607)" class="st2" width="111.48" height="1.939"/>
					</g>
				</g>
			</g>
			<path class="st3" d="M182.622,223.06c2.937,6.064,0.401,13.362-5.663,16.298c-6.064,2.939-13.362,0.401-16.298-5.663
				c-2.937-6.064-0.401-13.36,5.663-16.298C172.388,214.459,179.686,216.996,182.622,223.06z"/>
			<path class="st5" d="M5.913,239.286c5.082,10.496,0.694,23.128-9.803,28.21c-10.496,5.082-23.125,0.693-28.207-9.803
				c-5.083-10.496-0.694-23.125,9.802-28.21C-11.8,224.401,0.83,228.79,5.913,239.286z"/>
			<path class="st4" d="M39.179,164.783c2.372,4.9,0.324,10.793-4.575,13.164c-4.898,2.374-10.792,0.324-13.164-4.573
				c-2.371-4.897-0.324-10.79,4.575-13.164C30.914,157.838,36.807,159.886,39.179,164.783z"/>
			<path class="st4" d="M133.92,306.603c2.372,4.897,0.324,10.79-4.574,13.164c-4.899,2.371-10.793,0.321-13.164-4.576
				c-2.372-4.897-0.324-10.79,4.574-13.162C125.655,299.655,131.549,301.703,133.92,306.603z"/>
			<path class="st4" d="M216.993,61.474c2.373,4.9,0.324,10.793-4.575,13.164c-4.897,2.372-10.792,0.324-13.164-4.574
				c-2.371-4.899-0.324-10.793,4.575-13.164C208.728,54.529,214.621,56.577,216.993,61.474z"/>
			
				<linearGradient id="SVGID_00000053538153618784891090000004509724195908657793_" gradientUnits="userSpaceOnUse" x1="284.0895" y1="140.5553" x2="314.5972" y2="135.176">
				<stop  offset="0" style="stop-color:#00B4E5"/>
				<stop  offset="1" style="stop-color:#1CD0BB"/>
			</linearGradient>
			<path style="fill:url(#SVGID_00000053538153618784891090000004509724195908657793_);" d="M313.28,131.117
				c3.728,7.696,0.51,16.959-7.188,20.687c-7.697,3.725-16.959,0.508-20.686-7.191c-3.728-7.697-0.51-16.959,7.188-20.684
				C300.291,120.201,309.554,123.42,313.28,131.117z"/>
			
				<linearGradient id="SVGID_00000114776518333780525860000009899807925969494413_" gradientUnits="userSpaceOnUse" x1="32.1871" y1="303.2975" x2="55.2988" y2="299.2222">
				<stop  offset="0" style="stop-color:#00B4E5"/>
				<stop  offset="1" style="stop-color:#1CD0BB"/>
			</linearGradient>
			<path style="fill:url(#SVGID_00000114776518333780525860000009899807925969494413_);" d="M54.301,296.147
				c2.825,5.831,0.385,12.848-5.445,15.672c-5.831,2.823-12.848,0.385-15.672-5.446c-2.823-5.831-0.385-12.848,5.446-15.672
				C44.462,287.878,51.478,290.315,54.301,296.147z"/>
			
				<linearGradient id="SVGID_00000183966492605791575640000002387972409945765772_" gradientUnits="userSpaceOnUse" x1="117.6034" y1="203.591" x2="126.8487" y2="201.9608">
				<stop  offset="0" style="stop-color:#00B4E5"/>
				<stop  offset="1" style="stop-color:#1CD0BB"/>
			</linearGradient>
			<path style="fill:url(#SVGID_00000183966492605791575640000002387972409945765772_);" d="M126.45,200.73
				c1.129,2.334,0.154,5.141-2.178,6.27c-2.332,1.129-5.14,0.152-6.269-2.178c-1.129-2.334-0.154-5.141,2.178-6.27
				C122.513,197.422,125.32,198.399,126.45,200.73z"/>
			
				<linearGradient id="SVGID_00000029725941173374414500000004905841495508488610_" gradientUnits="userSpaceOnUse" x1="-9.7796" y1="94.6401" x2="20.7284" y2="89.2607">
				<stop  offset="0" style="stop-color:#00B4E5"/>
				<stop  offset="1" style="stop-color:#1CD0BB"/>
			</linearGradient>
			<path style="fill:url(#SVGID_00000029725941173374414500000004905841495508488610_);" d="M19.411,85.201
				c3.728,7.697,0.509,16.959-7.188,20.687c-7.697,3.727-16.959,0.508-20.686-7.188c-3.728-7.698-0.51-16.96,7.188-20.687
				C6.423,74.285,15.684,77.505,19.411,85.201z"/>
			<path class="st3" d="M109.289,229.895c1.131,2.333,0.155,5.138-2.177,6.268c-2.332,1.129-5.14,0.155-6.269-2.178
				c-1.13-2.331-0.154-5.138,2.178-6.268C105.353,226.587,108.159,227.561,109.289,229.895z"/>
			<path class="st3" d="M162.074,39.58c1.131,2.334,0.155,5.14-2.178,6.27c-2.331,1.128-5.138,0.153-6.268-2.18
				c-1.129-2.332-0.154-5.14,2.178-6.269C158.139,36.272,160.945,37.248,162.074,39.58z"/>
			<path class="st3" d="M143.058,148.892c1.13,2.333,0.154,5.141-2.178,6.268c-2.332,1.132-5.14,0.155-6.269-2.176
				c-1.129-2.333-0.154-5.141,2.178-6.27C139.121,145.584,141.929,146.561,143.058,148.892z"/>
			<path class="st3" d="M297.358,13.174c1.129,2.333,0.154,5.14-2.178,6.27c-2.332,1.129-5.138,0.152-6.269-2.18
				c-1.129-2.332-0.154-5.139,2.178-6.268C293.422,9.866,296.229,10.843,297.358,13.174z"/>
		</g>
		<g style="clip-path:url(#SVGID_00000023994913100175014600000007632834653310921138_);">
			<g>
				<g>
					<g>
						
							<rect x="391.06" y="200.21" transform="matrix(0.7703 -0.6377 0.6377 0.7703 -29.1744 320.3657)" class="st2" width="78.089" height="0.938"/>
						
							<rect x="390.56" y="199.71" transform="matrix(0.7704 -0.6376 0.6376 0.7704 -29.1865 320.3194)" class="st2" width="79.089" height="1.938"/>
					</g>
				</g>
				<g>
					<g>
						
							<rect x="382.509" y="157.698" transform="matrix(0.8813 -0.4725 0.4725 0.8813 -46.1115 203.9617)" class="st2" width="0.938" height="72.156"/>
						<polygon class="st2" points="399.407,226.472 364.839,161.996 366.549,161.083 366.784,161.523 401.115,225.555 						"/>
					</g>
				</g>
				<g>
					<g>
						
							<rect x="412.588" y="121.252" transform="matrix(0.1449 -0.9894 0.9894 0.1449 186.1031 553.1073)" class="st2" width="0.939" height="95.26"/>
						<polygon class="st2" points="460.538,176.815 365.295,162.867 365.576,160.948 366.071,161.021 460.82,174.897 						"/>
					</g>
				</g>
				<g>
					<g>
						
							<rect x="284.946" y="204.686" transform="matrix(0.5568 -0.8307 0.8307 0.5568 -21.0742 370.8132)" class="st2" width="104.002" height="0.938"/>
						
							<rect x="284.446" y="204.186" transform="matrix(0.5567 -0.8307 0.8307 0.5567 -21.0631 370.8369)" class="st2" width="105.002" height="1.937"/>
					</g>
				</g>
				<g>
					<g>
						
							<rect x="306.578" y="236.484" transform="matrix(0.9708 -0.2398 0.2398 0.9708 -46.4898 91.7944)" class="st2" width="94.832" height="0.937"/>
						
							<rect x="306.078" y="235.984" transform="matrix(0.9707 -0.2402 0.2402 0.9707 -46.5554 91.9757)" class="st2" width="95.832" height="1.937"/>
					</g>
				</g>
				<g>
					<g>
						
							<rect x="229.7" y="181.757" transform="matrix(0.9569 -0.2905 0.2905 0.9569 -40.0266 94.8027)" class="st2" width="139.24" height="0.94"/>
						<polygon class="st2" points="232.513,203.548 231.949,201.692 232.427,201.547 366.127,160.905 366.69,162.761 
							366.212,162.907 						"/>
					</g>
				</g>
				<g>
					<g>
						
							<rect x="269.869" y="181.339" transform="matrix(0.5204 -0.8539 0.8539 0.5204 -62.82 338.9574)" class="st2" width="0.936" height="88.126"/>
						
							<rect x="269.369" y="180.839" transform="matrix(0.5204 -0.854 0.854 0.5204 -62.8165 338.968)" class="st2" width="1.936" height="89.126"/>
					</g>
				</g>
				<g>
					<g>
						
							<rect x="173.409" y="250.156" transform="matrix(0.2054 -0.9787 0.9787 0.2054 -68.3934 417.0143)" class="st2" width="98.397" height="0.938"/>
						
							<rect x="172.909" y="249.656" transform="matrix(0.2051 -0.9787 0.9787 0.2051 -68.3497 417.0903)" class="st2" width="99.397" height="1.938"/>
					</g>
				</g>
				<g>
					<g>
						
							<rect x="206.251" y="273.082" transform="matrix(0.884 -0.4674 0.4674 0.884 -97.6854 153.3602)" class="st2" width="107.967" height="0.939"/>
						<polygon class="st2" points="212.516,299.863 211.609,298.149 212.051,297.916 307.953,247.241 308.859,248.955 
							308.417,249.188 						"/>
					</g>
				</g>
				<g>
					<g>
						
							<rect x="170.15" y="131.848" transform="matrix(0.1281 -0.9918 0.9918 0.1281 -44.091 338.7556)" class="st2" width="0.939" height="125.212"/>
						
							<rect x="169.649" y="131.348" transform="matrix(0.1281 -0.9918 0.9918 0.1281 -44.0915 338.7552)" class="st2" width="1.939" height="126.212"/>
					</g>
				</g>
				<g>
					<g>
						
							<rect x="160.047" y="166.067" transform="matrix(0.7339 -0.6793 0.6793 0.7339 -122.0767 173.5901)" class="st2" width="0.939" height="153.072"/>
						<polygon class="st2" points="212.133,299.797 107.477,186.724 108.902,185.409 109.241,185.775 213.556,298.481 						"/>
					</g>
				</g>
				<g>
					<g>
						<polygon class="st2" points="108.111,186.22 108.946,186.648 36.948,326.722 36.113,326.297 						"/>
						<polygon class="st2" points="37.165,327.395 35.439,326.515 35.668,326.068 107.895,185.547 109.62,186.431 						"/>
					</g>
				</g>
				<g>
					<g>
						
							<rect x="-16.027" y="204.255" transform="matrix(0.6927 -0.7212 0.7212 0.6927 -204.1845 73.7409)" class="st2" width="0.939" height="144.449"/>
						
							<rect x="-16.527" y="203.755" transform="matrix(0.6927 -0.7212 0.7212 0.6927 -204.1845 73.7408)" class="st2" width="1.939" height="145.449"/>
					</g>
				</g>
				<g>
					<g>
						
							<rect x="-69.892" y="205.973" transform="matrix(0.975 -0.2222 0.2222 0.975 -45.3506 9.6994)" class="st2" width="180.664" height="0.939"/>
						
							<rect x="-70.391" y="205.473" transform="matrix(0.975 -0.2222 0.2222 0.975 -45.3513 9.6996)" class="st2" width="181.664" height="1.939"/>
					</g>
				</g>
				<g>
					<g>
						
							<rect x="152.638" y="70.283" transform="matrix(0.4678 -0.8839 0.8839 0.4678 -60.2317 220.6673)" class="st2" width="0.938" height="180.124"/>
						
							<rect x="152.138" y="69.783" transform="matrix(0.4678 -0.8839 0.8839 0.4678 -60.2316 220.6672)" class="st2" width="1.939" height="181.124"/>
					</g>
				</g>
				<g>
					<g>
						
							<rect x="90.548" y="113.985" transform="matrix(0.8896 -0.4567 0.4567 0.8896 -59.5246 58.3873)" class="st2" width="0.938" height="76.682"/>
						<polygon class="st2" points="107.895,187.32 72.415,118.215 74.139,117.331 74.368,117.775 109.62,186.437 						"/>
					</g>
				</g>
				<g>
					<g>
						
							<rect x="493.846" y="165.964" transform="matrix(0.8471 -0.5315 0.5315 0.8471 -46.7407 297.9214)" class="st2" width="0.937" height="128.432"/>
						<polygon class="st2" points="527.892,285.513 527.625,285.089 459.098,175.876 460.74,174.847 529.53,284.484 						"/>
					</g>
				</g>
				<g>
					<g>
						
							<rect x="463.765" y="184.41" transform="matrix(0.4175 -0.9087 0.9087 0.4175 38.6431 570.4272)" class="st2" width="0.941" height="141.327"/>
						<polygon class="st2" points="528.494,285.666 528.04,285.457 399.167,226.244 399.976,224.482 529.306,283.901 						"/>
					</g>
				</g>
				<g>
					<g>
						
							<rect x="442.966" y="133.721" transform="matrix(0.7071 -0.7071 0.7071 0.7071 52.0967 394.1503)" class="st2" width="117.705" height="0.939"/>
						<polygon class="st2" points="460.515,176.824 459.145,175.453 543.121,91.557 544.492,92.927 544.139,93.281 						"/>
					</g>
				</g>
				<g>
					<g>
						
							<rect x="359.391" y="126.818" transform="matrix(0.9312 -0.3644 0.3644 0.9312 -15.118 174.4633)" class="st2" width="190.601" height="0.94"/>
						<polygon class="st2" points="365.816,163.065 365.112,161.259 365.577,161.077 543.564,91.51 544.272,93.317 543.806,93.499 
													"/>
					</g>
				</g>
				<g>
					<g>
						<polygon class="st2" points="410.232,3.717 411.135,3.971 366.381,162.107 365.478,161.853 						"/>
						<polygon class="st2" points="366.727,162.723 364.86,162.199 364.997,161.717 409.887,3.1 411.752,3.625 411.616,4.107 						
							"/>
					</g>
				</g>
				<g>
					<g>
						
							<rect x="188.348" y="102.69" transform="matrix(0.6675 -0.7446 0.7446 0.6675 30.1523 273.8404)" class="st2" width="266.697" height="0.938"/>
						<polygon class="st2" points="233.097,203.491 231.654,202.198 410.295,2.826 411.738,4.12 411.404,4.492 						"/>
					</g>
				</g>
				<g>
					<g>
						
							<rect x="220.173" y="320.217" transform="matrix(0.1883 -0.9821 0.9821 0.1883 -76.4016 548.93)" class="st2" width="147.423" height="0.938"/>
						<polygon class="st2" points="280.661,393.716 278.758,393.345 278.854,392.854 307.108,247.658 309.011,248.022 						"/>
					</g>
				</g>
				<g>
					<g>
						
							<rect x="245.685" y="287.993" transform="matrix(0.8139 -0.581 0.581 0.8139 -155.1691 207.4056)" class="st2" width="0.938" height="115.826"/>
						<polygon class="st2" points="279.305,394.008 279.016,393.602 211.425,298.929 213.003,297.802 280.884,392.885 						"/>
					</g>
				</g>
				<g>
					<g>
						
							<rect x="90.327" y="247.679" transform="matrix(0.8132 -0.582 0.582 0.8132 -112.8853 144.6377)" class="st2" width="157.035" height="0.938"/>
						
							<rect x="89.827" y="247.179" transform="matrix(0.8131 -0.5821 0.5821 0.8131 -112.8895 144.6491)" class="st2" width="158.035" height="1.938"/>
					</g>
				</g>
				<g>
					<g>
						<polygon class="st2" points="108.06,186.417 108.997,186.45 105.448,293.837 104.509,293.808 						"/>
						<polygon class="st2" points="105.932,294.353 103.993,294.292 107.577,185.9 109.513,185.967 						"/>
					</g>
				</g>
				<g>
					<g>
						
							<rect x="342.642" y="139.05" transform="matrix(0.3844 -0.9232 0.9232 0.3844 139.5036 488.2483)" class="st2" width="186.432" height="0.939"/>
						
							<rect x="342.142" y="138.55" transform="matrix(0.3823 -0.924 0.924 0.3823 140.3054 488.928)" class="st2" width="187.432" height="1.939"/>
					</g>
				</g>
				<g>
					<g>
						
							<rect x="404.508" y="114.156" transform="matrix(0.0938 -0.9956 0.9956 0.0938 308.1164 567.7582)" class="st2" width="122.86" height="0.94"/>
						<polygon class="st2" points="461.103,176.377 459.173,176.189 459.22,175.693 470.771,52.876 472.704,53.059 						"/>
					</g>
				</g>
				<g>
					<g>
						
							<rect x="48.75" y="356.294" transform="matrix(0.7778 -0.6285 0.6285 0.7778 -192.9136 167.81)" class="st2" width="184.291" height="0.94"/>
						<polygon class="st2" points="69.508,415.823 68.288,414.314 68.676,414 212.284,297.705 213.502,299.213 						"/>
					</g>
				</g>
				<g>
					<g>
						
							<rect x="35.445" y="312.172" transform="matrix(0.9878 -0.1555 0.1555 0.9878 -47.1089 23.1703)" class="st2" width="178.146" height="0.937"/>
						<polygon class="st2" points="36.188,327.543 35.887,325.629 36.381,325.551 212.849,297.737 213.149,299.651 212.655,299.729 
													"/>
					</g>
				</g>
				<g>
					<g>
						
							<rect x="52.44" y="323.567" transform="matrix(0.9375 -0.348 0.348 0.9375 -125.6638 41.5742)" class="st2" width="0.939" height="94.128"/>
						
							<rect x="51.94" y="323.067" transform="matrix(0.9375 -0.348 0.348 0.9375 -125.6656 41.5753)" class="st2" width="1.939" height="95.127"/>
					</g>
				</g>
				<g>
					<g>
						<polygon class="st2" points="-3.53,325.662 36.544,326.04 36.52,326.979 -3.554,326.601 						"/>
						<polygon class="st2" points="37.008,327.483 -4.067,327.096 -4.018,325.157 37.057,325.545 						"/>
					</g>
				</g>
				<g>
					<g>
						
							<rect x="-134.054" y="393.043" transform="matrix(0.7329 -0.6803 0.6803 0.7329 -277.2261 80.8821)" class="st2" width="196.903" height="0.937"/>
						<polygon class="st2" points="-107.444,461.562 -108.764,460.146 -108.397,459.805 36.238,325.459 37.558,326.879 
							37.191,327.22 						"/>
					</g>
				</g>
				<g>
					<g>
						
							<rect x="-17.68" y="372.489" transform="matrix(0.1539 -0.9881 0.9881 0.1539 -343.7034 344.5457)" class="st2" width="94.012" height="0.939"/>
						
							<rect x="-18.18" y="371.989" transform="matrix(0.1525 -0.9883 0.9883 0.1525 -343.7412 345.0475)" class="st2" width="95.012" height="1.939"/>
					</g>
				</g>
				<g>
					<g>
						<polygon class="st2" points="399.584,225.415 400.466,225.731 368.6,313.751 367.717,313.432 						"/>
						<polygon class="st2" points="368.9,314.391 367.076,313.733 399.283,224.776 401.107,225.429 						"/>
					</g>
				</g>
				<g>
					<g>
						
							<rect x="380.724" y="310.829" transform="matrix(0.914 -0.4058 0.4058 0.914 -106.3676 184.1744)" class="st2" width="0.938" height="64.254"/>
						
							<rect x="380.224" y="310.329" transform="matrix(0.914 -0.4058 0.4058 0.914 -106.3684 184.1768)" class="st2" width="1.938" height="65.254"/>
					</g>
				</g>
				<g>
					<g>
						<polygon class="st2" points="209.84,114.12 233.163,202.352 232.256,202.593 208.933,114.361 						"/>
						<polygon class="st2" points="231.9,203.205 208.322,114.006 210.195,113.508 233.774,202.707 						"/>
					</g>
				</g>
				<g>
					<g>
						
							<rect x="199.229" y="86.009" transform="matrix(0.7637 -0.6455 0.6455 0.7637 1.4109 176.812)" class="st2" width="86.037" height="0.939"/>
						
							<rect x="198.729" y="85.509" transform="matrix(0.7645 -0.6446 0.6446 0.7645 1.3015 176.5196)" class="st2" width="87.037" height="1.939"/>
					</g>
				</g>
				<g>
					<g>
						
							<rect x="49.803" y="114.749" transform="matrix(0.2045 -0.9789 0.9789 0.2045 -130.5882 187.8387)" class="st2" width="0.939" height="119.028"/>
						<polygon class="st2" points="108.819,187.486 108.33,187.383 -8.669,162.938 -8.277,161.042 109.217,185.586 						"/>
					</g>
				</g>
				<g>
					<g>
						
							<rect x="315.609" y="247.042" transform="matrix(0.9508 -0.3099 0.3099 0.9508 -69.114 111.4071)" class="st2" width="0.939" height="52.373"/>
						
							<rect x="315.109" y="246.542" transform="matrix(0.9508 -0.3099 0.3099 0.9508 -69.1164 111.4129)" class="st2" width="1.939" height="53.373"/>
					</g>
				</g>
				<g>
					<g>
						
							<rect x="261.856" y="347.346" transform="matrix(0.2224 -0.9749 0.9749 0.2224 -95.8543 575.4438)" class="st2" width="101.947" height="0.938"/>
						<polygon class="st2" points="302.297,398.208 300.408,397.777 300.52,397.29 323.361,297.421 325.252,297.853 325.14,298.34 
													"/>
					</g>
				</g>
				<g>
					<g>
						
							<rect x="213.845" y="298.736" transform="matrix(0.9992 -0.0405 0.0405 0.9992 -13.7359 8.9645)" class="st2" width="0.939" height="89.308"/>
						
							<rect x="213.345" y="298.236" transform="matrix(0.9992 -0.0405 0.0405 0.9992 -13.736 8.9645)" class="st2" width="1.939" height="90.308"/>
					</g>
				</g>
				<g>
					<g>
						
							<rect x="505.162" y="136.458" transform="matrix(0.1437 -0.9896 0.9896 0.1437 252.4922 656.5607)" class="st2" width="0.937" height="91.846"/>
						<polygon class="st2" points="551.435,190.009 459.55,176.671 459.828,174.752 460.323,174.825 551.711,188.093 						"/>
					</g>
				</g>
				<g>
					<g>
						
							<rect x="509.491" y="136.416" transform="matrix(0.2222 -0.975 0.975 0.2222 304.3953 655.3217)" class="st2" width="106.841" height="0.939"/>
						<polygon class="st2" points="551.912,189.682 550.021,189.251 550.133,188.764 573.911,84.089 575.802,84.52 575.69,85.007 
													"/>
					</g>
				</g>
				<g>
					<g>
						
							<rect x="-1.155" y="286.215" transform="matrix(0.0544 -0.9985 0.9985 0.0544 -249.634 309.7731)" class="st2" width="79.773" height="0.938"/>
						<polygon class="st2" points="37.471,327.062 35.536,326.957 39.992,246.306 41.927,246.411 						"/>
					</g>
				</g>
				<g>
					<g>
						
							<rect x="-13.828" y="181.414" transform="matrix(0.1847 -0.9828 0.9828 0.1847 -243.4721 179.8103)" class="st2" width="0.941" height="110.481"/>
						<polygon class="st2" points="41.244,247.903 -68.318,227.312 -67.96,225.404 -67.469,225.497 41.603,245.998 						"/>
					</g>
				</g>
				<g>
					<g>
						<polygon class="st2" points="290.719,202.753 308.401,248.163 307.526,248.5 289.843,203.093 						"/>
						<polygon class="st2" points="307.241,249.146 289.196,202.808 291.003,202.106 309.049,248.449 						"/>
					</g>
				</g>
				<g>
					<g>
						
							<rect x="285.096" y="181.981" transform="matrix(0.8791 -0.4767 0.4767 0.8791 -47.2951 178.4549)" class="st2" width="86.018" height="0.939"/>
						
							<rect x="284.596" y="181.481" transform="matrix(0.8799 -0.4752 0.4752 0.8799 -47.2877 177.8234)" class="st2" width="87.018" height="1.939"/>
					</g>
				</g>
			</g>
			<path class="st3" d="M531.464,190.914c-1.07-10.833,6.846-20.481,17.679-21.549c10.831-1.068,20.478,6.846,21.549,17.679
				c1.068,10.83-6.846,20.478-17.679,21.548C542.179,209.66,532.531,201.747,531.464,190.914z"/>
			<path class="st3" d="M353.788,163.178c-0.662-6.707,4.238-12.677,10.943-13.338c6.706-0.664,12.678,4.236,13.341,10.943
				c0.661,6.704-4.239,12.677-10.944,13.338C360.423,174.781,354.449,169.884,353.788,163.178z"/>
			<path class="st3" d="M362.087,314.192c-0.331-3.353,2.12-6.34,5.472-6.672c3.353-0.329,6.339,2.12,6.67,5.473
				c0.33,3.353-2.119,6.34-5.473,6.672C365.404,319.994,362.418,317.546,362.087,314.192z"/>
			<g>
				<path class="st0" d="M205.625,205.146c-1.476-14.96,9.454-28.282,24.412-29.757c14.959-1.477,28.282,9.452,29.758,24.41
					c1.476,14.96-9.455,28.284-24.414,29.759C220.423,231.035,207.101,220.103,205.625,205.146z"/>
				
					<linearGradient id="SVGID_00000176722408560009161620000016509427835884785851_" gradientUnits="userSpaceOnUse" x1="201.9904" y1="202.4733" x2="263.4295" y2="202.4733">
					<stop  offset="0" style="stop-color:#00B4E5"/>
					<stop  offset="1" style="stop-color:#1CD0BB"/>
				</linearGradient>
				<path style="fill:url(#SVGID_00000176722408560009161620000016509427835884785851_);" d="M232.65,233.193
					c-7.077,0-13.879-2.423-19.423-6.973c-6.343-5.204-10.279-12.566-11.085-20.731l0,0c-0.806-8.166,1.616-16.156,6.82-22.499
					c5.204-6.343,12.566-10.279,20.731-11.084c8.163-0.808,16.154,1.615,22.498,6.818s10.281,12.566,11.086,20.73
					c0.806,8.166-1.617,16.156-6.821,22.5s-12.567,10.281-20.732,11.085C234.696,233.142,233.67,233.193,232.65,233.193z
					 M209.108,204.802c0.622,6.304,3.662,11.989,8.56,16.007c4.897,4.019,11.064,5.888,17.37,5.266s11.99-3.662,16.008-8.56
					c4.018-4.898,5.889-11.068,5.267-17.373c-0.622-6.304-3.662-11.988-8.56-16.006c-4.898-4.017-11.065-5.881-17.371-5.265
					c-6.305,0.622-11.99,3.661-16.007,8.558S208.486,198.497,209.108,204.802L209.108,204.802z"/>
			</g>
			<path class="st4" d="M398.541,5.043c-0.662-6.705,4.238-12.679,10.944-13.34c6.705-0.661,12.677,4.238,13.34,10.943
				c0.661,6.705-4.238,12.678-10.944,13.341C405.175,16.648,399.203,11.748,398.541,5.043z"/>
			<g>
				<path class="st0" d="M463.285,54.294c-0.458-4.642,2.933-8.775,7.576-9.235c4.643-0.456,8.778,2.936,9.236,7.578
					c0.458,4.642-2.933,8.776-7.576,9.235C467.877,62.329,463.745,58.937,463.285,54.294z"/>
				<path class="st5" d="M471.686,64.913c-5.811,0-10.801-4.422-11.386-10.323v-0.001c-0.619-6.278,3.985-11.893,10.266-12.516
					c6.285-0.613,11.897,3.989,12.517,10.269c0.62,6.28-3.985,11.895-10.267,12.515C472.437,64.895,472.059,64.913,471.686,64.913z
					 M466.271,53.998c0.296,2.989,2.959,5.172,5.956,4.888c2.987-0.295,5.18-2.967,4.885-5.956s-2.961-5.185-5.957-4.887
					C468.168,48.34,465.977,51.011,466.271,53.998L466.271,53.998z"/>
			</g>
			<g>
				<path class="st0" d="M315.789,298.957c-0.459-4.643,2.933-8.778,7.575-9.236c4.643-0.458,8.778,2.933,9.236,7.576
					c0.459,4.64-2.933,8.775-7.576,9.233C320.382,306.991,316.247,303.597,315.789,298.957z"/>
				<path class="st5" d="M324.168,309.573c-2.635,0-5.168-0.902-7.234-2.597c-2.364-1.939-3.831-4.683-4.13-7.725
					c-0.301-3.043,0.602-6.021,2.541-8.384c1.939-2.364,4.683-3.831,7.726-4.131c3.042-0.303,6.021,0.603,8.384,2.542
					c2.364,1.939,3.831,4.683,4.131,7.727c0.301,3.041-0.602,6.018-2.541,8.382c-1.939,2.363-4.683,3.83-7.727,4.13
					C324.934,309.554,324.55,309.573,324.168,309.573z M324.203,292.68c-0.181,0-0.362,0.009-0.545,0.027
					c-1.447,0.143-2.752,0.841-3.675,1.965c-0.923,1.125-1.352,2.542-1.209,3.99v0c0.143,1.447,0.841,2.752,1.965,3.675
					s2.539,1.352,3.988,1.208c1.45-0.143,2.755-0.841,3.678-1.965c0.922-1.124,1.352-2.54,1.208-3.986
					c-0.143-1.449-0.841-2.755-1.965-3.677C326.666,293.109,325.459,292.68,324.203,292.68z"/>
			</g>
			<g>
				<path class="st0" d="M87.606,189.442c-1.144-11.607,7.335-21.942,18.942-23.088c11.605-1.145,21.942,7.335,23.088,18.939
					c1.145,11.607-7.336,21.945-18.942,23.088C99.088,209.527,88.751,201.046,87.606,189.442z"/>
				<path class="st5" d="M108.576,211.486c-5.557,0-10.897-1.902-15.251-5.474c-4.98-4.085-8.071-9.866-8.704-16.275l0,0
					c-1.305-13.233,8.399-25.062,21.633-26.367c13.233-1.306,25.061,8.396,26.367,21.629c0.633,6.412-1.269,12.685-5.355,17.666
					c-4.086,4.981-9.867,8.071-16.278,8.703C110.181,211.446,109.375,211.486,108.576,211.486z M90.592,189.147
					c0.475,4.814,2.797,9.156,6.539,12.226s8.456,4.498,13.269,4.023c4.816-0.475,9.159-2.796,12.229-6.538
					c3.069-3.741,4.498-8.454,4.023-13.271c-0.981-9.94-9.879-17.226-19.807-16.248C96.902,170.321,89.612,179.206,90.592,189.147
					L90.592,189.147z"/>
			</g>
			<g>
				<path class="st0" d="M267.591,58.985c-0.458-4.641,2.934-8.775,7.576-9.234c4.643-0.458,8.778,2.934,9.236,7.576
					c0.458,4.642-2.934,8.776-7.576,9.235C272.183,67.022,268.048,63.628,267.591,58.985z"/>
				<path class="st5" d="M275.975,69.605c-2.638,0-5.172-0.903-7.239-2.599c-2.364-1.939-3.831-4.684-4.13-7.727l0,0
					c-0.619-6.279,3.986-11.893,10.267-12.514c6.294-0.625,11.897,3.987,12.516,10.268c0.619,6.28-3.987,11.894-10.267,12.515
					C276.738,69.586,276.355,69.605,275.975,69.605z M276,52.71c-0.178,0-0.357,0.009-0.538,0.026
					c-2.988,0.295-5.18,2.967-4.886,5.955v0c0.143,1.448,0.841,2.754,1.966,3.677s2.542,1.352,3.989,1.209
					c2.989-0.295,5.181-2.967,4.886-5.956C281.141,54.814,278.766,52.71,276,52.71z"/>
			</g>
			<path class="st4" d="M450.378,176.751c-0.535-5.417,3.423-10.239,8.838-10.774c5.418-0.533,10.24,3.423,10.776,8.839
				c0.535,5.417-3.426,10.242-8.84,10.775C455.735,186.126,450.911,182.168,450.378,176.751z"/>
			<path class="st4" d="M199.626,115.675c-0.535-5.417,3.423-10.239,8.838-10.775c5.417-0.535,10.24,3.423,10.775,8.84
				c0.534,5.417-3.423,10.239-8.838,10.775C204.984,125.047,200.16,121.092,199.626,115.675z"/>
			<path class="st4" d="M30.658,247.871c-0.534-5.414,3.423-10.239,8.84-10.774c5.415-0.532,10.24,3.423,10.774,8.84
				c0.534,5.417-3.423,10.242-8.839,10.774C36.017,257.246,31.193,253.288,30.658,247.871z"/>
			<path class="st4" d="M-9.279,82.062c-0.534-5.417,3.423-10.242,8.84-10.775C4.976,70.752,9.8,74.71,10.335,80.126
				c0.534,5.415-3.423,10.24-8.84,10.775C-3.92,91.434-8.745,87.479-9.279,82.062z"/>
			<g>
				<path class="st0" d="M521.439,285.266c-0.38-3.87,2.446-7.314,6.316-7.697c3.87-0.38,7.311,2.446,7.697,6.316
					c0.38,3.867-2.446,7.311-6.316,7.694C525.266,291.961,521.821,289.135,521.439,285.266z"/>
				<path class="st5" d="M528.436,294.613c-5.095,0-9.471-3.877-9.982-9.052v-0.002c-0.541-5.507,3.5-10.431,9.007-10.975
					c5.502-0.544,10.428,3.499,10.977,9.003c0.541,5.51-3.499,10.432-9.006,10.977C529.097,294.597,528.765,294.613,528.436,294.613
					z M524.424,284.973c0.221,2.215,2.195,3.84,4.417,3.621c2.216-0.219,3.843-2.2,3.625-4.416c-0.221-2.214-2.2-3.835-4.418-3.623
					C525.833,280.773,524.206,282.755,524.424,284.973L524.424,284.973z"/>
			</g>
			<g>
				<path class="st0" d="M550.465,87.188c-1.325-13.412,8.475-25.356,21.886-26.68c13.413-1.322,25.357,8.476,26.679,21.889
					c1.325,13.411-8.475,25.356-21.889,26.679C563.733,110.399,551.787,100.599,550.465,87.188z"/>
				
					<linearGradient id="SVGID_00000022528062298918697160000009751226931340650676_" gradientUnits="userSpaceOnUse" x1="546.8434" y1="84.7923" x2="602.6507" y2="84.7923">
					<stop  offset="0" style="stop-color:#00B4E5"/>
					<stop  offset="1" style="stop-color:#1CD0BB"/>
				</linearGradient>
				<path style="fill:url(#SVGID_00000022528062298918697160000009751226931340650676_);" d="M574.694,112.697
					c-6.429,0-12.607-2.202-17.644-6.334c-5.762-4.727-9.338-11.415-10.069-18.83l0,0c-0.732-7.417,1.467-14.675,6.194-20.437
					c4.727-5.762,11.414-9.338,18.831-10.071c15.304-1.517,28.997,9.718,30.506,25.028c0.732,7.416-1.468,14.674-6.195,20.436
					c-4.728,5.762-11.416,9.338-18.833,10.07C576.551,112.651,575.62,112.697,574.694,112.697z M574.76,63.889
					c-0.683,0-1.372,0.033-2.066,0.102c-5.555,0.549-10.565,3.228-14.105,7.544c-3.541,4.316-5.189,9.753-4.64,15.309v0.001
					c0.547,5.555,3.226,10.564,7.542,14.106c4.316,3.541,9.749,5.188,15.307,4.642c5.557-0.548,10.567-3.228,14.108-7.544
					s5.189-9.753,4.641-15.309C594.484,71.965,585.37,63.889,574.76,63.889z"/>
			</g>
			
				<linearGradient id="SVGID_00000038382487912170327790000005508002541471706773_" gradientUnits="userSpaceOnUse" x1="293.2266" y1="251.4408" x2="323.7277" y2="246.0626">
				<stop  offset="0" style="stop-color:#00B4E5"/>
				<stop  offset="1" style="stop-color:#1CD0BB"/>
			</linearGradient>
			<path style="fill:url(#SVGID_00000038382487912170327790000005508002541471706773_);" d="M293.067,250.272
				c-0.84-8.51,5.379-16.089,13.89-16.93c8.511-0.84,16.092,5.379,16.931,13.889c0.84,8.51-5.379,16.092-13.89,16.93
				C301.486,265.001,293.906,258.782,293.067,250.272z"/>
			
				<linearGradient id="SVGID_00000013899262163322661260000015075270338714386094_" gradientUnits="userSpaceOnUse" x1="61.9527" y1="120.254" x2="85.0601" y2="116.1796">
				<stop  offset="0" style="stop-color:#00B4E5"/>
				<stop  offset="1" style="stop-color:#1CD0BB"/>
			</linearGradient>
			<path style="fill:url(#SVGID_00000013899262163322661260000015075270338714386094_);" d="M61.832,119.368
				c-0.637-6.447,4.074-12.19,10.523-12.825c6.447-0.636,12.19,4.074,12.827,10.524c0.636,6.444-4.076,12.187-10.523,12.824
				C68.21,130.528,62.467,125.818,61.832,119.368z"/>
			
				<linearGradient id="SVGID_00000099638896434608950880000018198400648001847682_" gradientUnits="userSpaceOnUse" x1="21.8858" y1="330.554" x2="52.387" y2="325.1758">
				<stop  offset="0" style="stop-color:#00B4E5"/>
				<stop  offset="1" style="stop-color:#1CD0BB"/>
			</linearGradient>
			<path style="fill:url(#SVGID_00000099638896434608950880000018198400648001847682_);" d="M21.726,329.385
				c-0.84-8.51,5.379-16.092,13.89-16.93c8.512-0.84,16.092,5.376,16.931,13.89c0.84,8.51-5.378,16.089-13.889,16.93
				C30.146,344.115,22.565,337.895,21.726,329.385z"/>
			
				<linearGradient id="SVGID_00000005985584426078802300000006484389089475672706_" gradientUnits="userSpaceOnUse" x1="204.6993" y1="300.6605" x2="221.3369" y2="297.7268">
				<stop  offset="0" style="stop-color:#00B4E5"/>
				<stop  offset="1" style="stop-color:#1CD0BB"/>
			</linearGradient>
			<path style="fill:url(#SVGID_00000005985584426078802300000006484389089475672706_);" d="M204.612,300.022
				c-0.458-4.64,2.934-8.775,7.576-9.236c4.643-0.458,8.778,2.936,9.235,7.576c0.458,4.643-2.934,8.778-7.576,9.238
				C209.206,308.059,205.07,304.665,204.612,300.022z"/>
			<path class="st3" d="M538.783,93.056c-0.254-2.58,1.63-4.876,4.21-5.13c2.58-0.256,4.876,1.63,5.13,4.21
				c0.254,2.579-1.63,4.875-4.21,5.129C541.333,97.52,539.037,95.636,538.783,93.056z"/>
			<path class="st3" d="M395.355,226.033c-0.254-2.58,1.63-4.876,4.21-5.13c2.578-0.254,4.876,1.63,5.13,4.21
				c0.254,2.577-1.63,4.876-4.21,5.13C397.907,230.497,395.609,228.613,395.355,226.033z"/>
			<path class="st3" d="M285.657,203.85c-0.254-2.58,1.63-4.876,4.21-5.13c2.578-0.254,4.876,1.63,5.13,4.21
				c0.254,2.577-1.63,4.876-4.208,5.13C288.208,208.314,285.912,206.43,285.657,203.85z"/>
			<path class="st3" d="M100.309,294.284c-0.254-2.58,1.631-4.879,4.21-5.133c2.578-0.254,4.876,1.63,5.13,4.21
				c0.254,2.58-1.63,4.876-4.208,5.13C102.86,298.745,100.563,296.861,100.309,294.284z"/>
		</g>
	</g>
</g>
<g id="Layer_2_copy">
</g>
</svg>
